<mxfile host="app.diagrams.net" modified="2022-01-31T21:07:45.891Z" agent="5.0 (Windows NT 10.0; Win64; x64) AppleWebKit/537.36 (KHTML, like Gecko) Chrome/97.0.4692.99 Safari/537.36" etag="dKqYgEKaX0r62j-TV-sg" version="16.5.2" type="github">
  <diagram id="x3Okp78eN9aOiWaBEIjz" name="Page-1">
    <mxGraphModel dx="1038" dy="579" grid="1" gridSize="10" guides="1" tooltips="1" connect="1" arrows="1" fold="1" page="1" pageScale="1" pageWidth="827" pageHeight="1169" math="0" shadow="0">
      <root>
        <mxCell id="0" />
        <mxCell id="1" parent="0" />
        <mxCell id="0B8fpwyA28IvFozWtNzo-40" value="" style="rounded=0;whiteSpace=wrap;html=1;fontSize=14;" vertex="1" parent="1">
          <mxGeometry x="60" y="950" width="726" height="450" as="geometry" />
        </mxCell>
        <mxCell id="0B8fpwyA28IvFozWtNzo-68" style="edgeStyle=orthogonalEdgeStyle;rounded=0;orthogonalLoop=1;jettySize=auto;html=1;exitX=0.5;exitY=0;exitDx=0;exitDy=0;entryX=-0.022;entryY=0.193;entryDx=0;entryDy=0;entryPerimeter=0;fontSize=18;" edge="1" parent="1" source="0B8fpwyA28IvFozWtNzo-1" target="0B8fpwyA28IvFozWtNzo-50">
          <mxGeometry relative="1" as="geometry" />
        </mxCell>
        <mxCell id="0B8fpwyA28IvFozWtNzo-72" style="edgeStyle=orthogonalEdgeStyle;rounded=0;orthogonalLoop=1;jettySize=auto;html=1;exitX=0;exitY=0.75;exitDx=0;exitDy=0;fontSize=18;" edge="1" parent="1" source="0B8fpwyA28IvFozWtNzo-1" target="0B8fpwyA28IvFozWtNzo-69">
          <mxGeometry relative="1" as="geometry" />
        </mxCell>
        <mxCell id="0B8fpwyA28IvFozWtNzo-1" value="&lt;span style=&quot;font-size: 18px&quot;&gt;&lt;b&gt;Server&lt;/b&gt;&lt;/span&gt;" style="rounded=0;whiteSpace=wrap;html=1;direction=south;" vertex="1" parent="1">
          <mxGeometry x="50" y="620" width="280" height="100" as="geometry" />
        </mxCell>
        <mxCell id="0B8fpwyA28IvFozWtNzo-67" style="edgeStyle=orthogonalEdgeStyle;rounded=0;orthogonalLoop=1;jettySize=auto;html=1;entryX=0.5;entryY=0;entryDx=0;entryDy=0;fontSize=18;" edge="1" parent="1" source="0B8fpwyA28IvFozWtNzo-8" target="0B8fpwyA28IvFozWtNzo-27">
          <mxGeometry relative="1" as="geometry" />
        </mxCell>
        <mxCell id="0B8fpwyA28IvFozWtNzo-8" value="Schemas" style="swimlane;fontSize=14;" vertex="1" parent="1">
          <mxGeometry x="323" y="1040" width="200" height="305" as="geometry" />
        </mxCell>
        <mxCell id="0B8fpwyA28IvFozWtNzo-4" value="emailVerificationCodeSchema" style="text;strokeColor=none;fillColor=none;align=left;verticalAlign=middle;spacingLeft=4;spacingRight=4;overflow=hidden;points=[[0,0.5],[1,0.5]];portConstraint=eastwest;rotatable=0;fontSize=14;" vertex="1" parent="0B8fpwyA28IvFozWtNzo-8">
          <mxGeometry y="205" width="200" height="30" as="geometry" />
        </mxCell>
        <mxCell id="0B8fpwyA28IvFozWtNzo-9" value="fbUserSchema" style="text;strokeColor=none;fillColor=none;align=left;verticalAlign=middle;spacingLeft=4;spacingRight=4;overflow=hidden;points=[[0,0.5],[1,0.5]];portConstraint=eastwest;rotatable=0;fontSize=14;" vertex="1" parent="0B8fpwyA28IvFozWtNzo-8">
          <mxGeometry y="55" width="200" height="30" as="geometry" />
        </mxCell>
        <mxCell id="0B8fpwyA28IvFozWtNzo-10" value="googleUserSchema" style="text;strokeColor=none;fillColor=none;align=left;verticalAlign=middle;spacingLeft=4;spacingRight=4;overflow=hidden;points=[[0,0.5],[1,0.5]];portConstraint=eastwest;rotatable=0;fontSize=14;" vertex="1" parent="0B8fpwyA28IvFozWtNzo-8">
          <mxGeometry y="85" width="200" height="30" as="geometry" />
        </mxCell>
        <mxCell id="0B8fpwyA28IvFozWtNzo-11" value="issueReportSchema" style="text;strokeColor=none;fillColor=none;align=left;verticalAlign=middle;spacingLeft=4;spacingRight=4;overflow=hidden;points=[[0,0.5],[1,0.5]];portConstraint=eastwest;rotatable=0;fontSize=14;" vertex="1" parent="0B8fpwyA28IvFozWtNzo-8">
          <mxGeometry y="115" width="200" height="30" as="geometry" />
        </mxCell>
        <mxCell id="0B8fpwyA28IvFozWtNzo-12" value="NotificationSchema" style="text;strokeColor=none;fillColor=none;align=left;verticalAlign=middle;spacingLeft=4;spacingRight=4;overflow=hidden;points=[[0,0.5],[1,0.5]];portConstraint=eastwest;rotatable=0;fontSize=14;" vertex="1" parent="0B8fpwyA28IvFozWtNzo-8">
          <mxGeometry y="145" width="200" height="30" as="geometry" />
        </mxCell>
        <mxCell id="0B8fpwyA28IvFozWtNzo-13" value="passwordForgetCodeSchema" style="text;strokeColor=none;fillColor=none;align=left;verticalAlign=middle;spacingLeft=4;spacingRight=4;overflow=hidden;points=[[0,0.5],[1,0.5]];portConstraint=eastwest;rotatable=0;fontSize=14;" vertex="1" parent="0B8fpwyA28IvFozWtNzo-8">
          <mxGeometry y="175" width="200" height="30" as="geometry" />
        </mxCell>
        <mxCell id="0B8fpwyA28IvFozWtNzo-14" value="productSchema" style="text;strokeColor=none;fillColor=none;align=left;verticalAlign=middle;spacingLeft=4;spacingRight=4;overflow=hidden;points=[[0,0.5],[1,0.5]];portConstraint=eastwest;rotatable=0;fontSize=14;" vertex="1" parent="0B8fpwyA28IvFozWtNzo-8">
          <mxGeometry y="235" width="200" height="30" as="geometry" />
        </mxCell>
        <mxCell id="0B8fpwyA28IvFozWtNzo-16" value="userSchema" style="text;strokeColor=none;fillColor=none;align=left;verticalAlign=middle;spacingLeft=4;spacingRight=4;overflow=hidden;points=[[0,0.5],[1,0.5]];portConstraint=eastwest;rotatable=0;fontSize=14;" vertex="1" parent="0B8fpwyA28IvFozWtNzo-8">
          <mxGeometry y="25" width="200" height="30" as="geometry" />
        </mxCell>
        <mxCell id="0B8fpwyA28IvFozWtNzo-15" value="plansSchema" style="text;strokeColor=none;fillColor=none;align=left;verticalAlign=middle;spacingLeft=4;spacingRight=4;overflow=hidden;points=[[0,0.5],[1,0.5]];portConstraint=eastwest;rotatable=0;fontSize=14;" vertex="1" parent="0B8fpwyA28IvFozWtNzo-8">
          <mxGeometry y="265" width="200" height="30" as="geometry" />
        </mxCell>
        <mxCell id="0B8fpwyA28IvFozWtNzo-66" style="edgeStyle=orthogonalEdgeStyle;rounded=0;orthogonalLoop=1;jettySize=auto;html=1;entryX=0.5;entryY=0;entryDx=0;entryDy=0;fontSize=18;" edge="1" parent="1" source="0B8fpwyA28IvFozWtNzo-17" target="0B8fpwyA28IvFozWtNzo-8">
          <mxGeometry relative="1" as="geometry" />
        </mxCell>
        <mxCell id="0B8fpwyA28IvFozWtNzo-17" value="Schema&#39;s Interfaces" style="swimlane;fontSize=14;" vertex="1" parent="1">
          <mxGeometry x="570" y="1040" width="200" height="250" as="geometry" />
        </mxCell>
        <mxCell id="0B8fpwyA28IvFozWtNzo-18" value="IUser" style="text;strokeColor=none;fillColor=none;align=left;verticalAlign=middle;spacingLeft=4;spacingRight=4;overflow=hidden;points=[[0,0.5],[1,0.5]];portConstraint=eastwest;rotatable=0;fontSize=14;" vertex="1" parent="0B8fpwyA28IvFozWtNzo-17">
          <mxGeometry y="25" width="200" height="30" as="geometry" />
        </mxCell>
        <mxCell id="0B8fpwyA28IvFozWtNzo-19" value="NotificationInterface" style="text;strokeColor=none;fillColor=none;align=left;verticalAlign=middle;spacingLeft=4;spacingRight=4;overflow=hidden;points=[[0,0.5],[1,0.5]];portConstraint=eastwest;rotatable=0;fontSize=14;" vertex="1" parent="0B8fpwyA28IvFozWtNzo-17">
          <mxGeometry y="115" width="200" height="30" as="geometry" />
        </mxCell>
        <mxCell id="0B8fpwyA28IvFozWtNzo-20" value="IOauthUser" style="text;strokeColor=none;fillColor=none;align=left;verticalAlign=middle;spacingLeft=4;spacingRight=4;overflow=hidden;points=[[0,0.5],[1,0.5]];portConstraint=eastwest;rotatable=0;fontSize=14;" vertex="1" parent="0B8fpwyA28IvFozWtNzo-17">
          <mxGeometry y="55" width="200" height="30" as="geometry" />
        </mxCell>
        <mxCell id="0B8fpwyA28IvFozWtNzo-22" value="IPlanCount" style="text;strokeColor=none;fillColor=none;align=left;verticalAlign=middle;spacingLeft=4;spacingRight=4;overflow=hidden;points=[[0,0.5],[1,0.5]];portConstraint=eastwest;rotatable=0;fontSize=14;" vertex="1" parent="0B8fpwyA28IvFozWtNzo-17">
          <mxGeometry y="205" width="200" height="30" as="geometry" />
        </mxCell>
        <mxCell id="0B8fpwyA28IvFozWtNzo-23" value="IProduct" style="text;strokeColor=none;fillColor=none;align=left;verticalAlign=middle;spacingLeft=4;spacingRight=4;overflow=hidden;points=[[0,0.5],[1,0.5]];portConstraint=eastwest;rotatable=0;fontSize=14;" vertex="1" parent="0B8fpwyA28IvFozWtNzo-17">
          <mxGeometry y="175" width="200" height="30" as="geometry" />
        </mxCell>
        <mxCell id="0B8fpwyA28IvFozWtNzo-25" value="Issue" style="text;strokeColor=none;fillColor=none;align=left;verticalAlign=middle;spacingLeft=4;spacingRight=4;overflow=hidden;points=[[0,0.5],[1,0.5]];portConstraint=eastwest;rotatable=0;fontSize=14;" vertex="1" parent="0B8fpwyA28IvFozWtNzo-17">
          <mxGeometry y="85" width="200" height="30" as="geometry" />
        </mxCell>
        <mxCell id="0B8fpwyA28IvFozWtNzo-26" value="IVerificationCode" style="text;strokeColor=none;fillColor=none;align=left;verticalAlign=middle;spacingLeft=4;spacingRight=4;overflow=hidden;points=[[0,0.5],[1,0.5]];portConstraint=eastwest;rotatable=0;fontSize=14;" vertex="1" parent="0B8fpwyA28IvFozWtNzo-17">
          <mxGeometry y="145" width="200" height="30" as="geometry" />
        </mxCell>
        <mxCell id="0B8fpwyA28IvFozWtNzo-27" value="Models" style="swimlane;fontSize=14;" vertex="1" parent="1">
          <mxGeometry x="80" y="1040" width="200" height="305" as="geometry" />
        </mxCell>
        <mxCell id="0B8fpwyA28IvFozWtNzo-28" value="emailVerificationCode" style="text;strokeColor=none;fillColor=none;align=left;verticalAlign=middle;spacingLeft=4;spacingRight=4;overflow=hidden;points=[[0,0.5],[1,0.5]];portConstraint=eastwest;rotatable=0;fontSize=14;" vertex="1" parent="0B8fpwyA28IvFozWtNzo-27">
          <mxGeometry y="205" width="200" height="30" as="geometry" />
        </mxCell>
        <mxCell id="0B8fpwyA28IvFozWtNzo-29" value="fbUser" style="text;strokeColor=none;fillColor=none;align=left;verticalAlign=middle;spacingLeft=4;spacingRight=4;overflow=hidden;points=[[0,0.5],[1,0.5]];portConstraint=eastwest;rotatable=0;fontSize=14;" vertex="1" parent="0B8fpwyA28IvFozWtNzo-27">
          <mxGeometry y="55" width="200" height="30" as="geometry" />
        </mxCell>
        <mxCell id="0B8fpwyA28IvFozWtNzo-30" value="googleUser" style="text;strokeColor=none;fillColor=none;align=left;verticalAlign=middle;spacingLeft=4;spacingRight=4;overflow=hidden;points=[[0,0.5],[1,0.5]];portConstraint=eastwest;rotatable=0;fontSize=14;" vertex="1" parent="0B8fpwyA28IvFozWtNzo-27">
          <mxGeometry y="85" width="200" height="30" as="geometry" />
        </mxCell>
        <mxCell id="0B8fpwyA28IvFozWtNzo-31" value="issueReport" style="text;strokeColor=none;fillColor=none;align=left;verticalAlign=middle;spacingLeft=4;spacingRight=4;overflow=hidden;points=[[0,0.5],[1,0.5]];portConstraint=eastwest;rotatable=0;fontSize=14;" vertex="1" parent="0B8fpwyA28IvFozWtNzo-27">
          <mxGeometry y="115" width="200" height="30" as="geometry" />
        </mxCell>
        <mxCell id="0B8fpwyA28IvFozWtNzo-32" value="Notification" style="text;strokeColor=none;fillColor=none;align=left;verticalAlign=middle;spacingLeft=4;spacingRight=4;overflow=hidden;points=[[0,0.5],[1,0.5]];portConstraint=eastwest;rotatable=0;fontSize=14;" vertex="1" parent="0B8fpwyA28IvFozWtNzo-27">
          <mxGeometry y="145" width="200" height="30" as="geometry" />
        </mxCell>
        <mxCell id="0B8fpwyA28IvFozWtNzo-33" value="Code" style="text;strokeColor=none;fillColor=none;align=left;verticalAlign=middle;spacingLeft=4;spacingRight=4;overflow=hidden;points=[[0,0.5],[1,0.5]];portConstraint=eastwest;rotatable=0;fontSize=14;" vertex="1" parent="0B8fpwyA28IvFozWtNzo-27">
          <mxGeometry y="175" width="200" height="30" as="geometry" />
        </mxCell>
        <mxCell id="0B8fpwyA28IvFozWtNzo-34" value="Product" style="text;strokeColor=none;fillColor=none;align=left;verticalAlign=middle;spacingLeft=4;spacingRight=4;overflow=hidden;points=[[0,0.5],[1,0.5]];portConstraint=eastwest;rotatable=0;fontSize=14;" vertex="1" parent="0B8fpwyA28IvFozWtNzo-27">
          <mxGeometry y="235" width="200" height="30" as="geometry" />
        </mxCell>
        <mxCell id="0B8fpwyA28IvFozWtNzo-35" value="User" style="text;strokeColor=none;fillColor=none;align=left;verticalAlign=middle;spacingLeft=4;spacingRight=4;overflow=hidden;points=[[0,0.5],[1,0.5]];portConstraint=eastwest;rotatable=0;fontSize=14;" vertex="1" parent="0B8fpwyA28IvFozWtNzo-27">
          <mxGeometry y="25" width="200" height="30" as="geometry" />
        </mxCell>
        <mxCell id="0B8fpwyA28IvFozWtNzo-36" value="PlanCount" style="text;strokeColor=none;fillColor=none;align=left;verticalAlign=middle;spacingLeft=4;spacingRight=4;overflow=hidden;points=[[0,0.5],[1,0.5]];portConstraint=eastwest;rotatable=0;fontSize=14;" vertex="1" parent="0B8fpwyA28IvFozWtNzo-27">
          <mxGeometry y="265" width="200" height="30" as="geometry" />
        </mxCell>
        <mxCell id="0B8fpwyA28IvFozWtNzo-41" value="Data Base" style="shape=datastore;whiteSpace=wrap;html=1;fontSize=14;" vertex="1" parent="1">
          <mxGeometry x="367" y="910" width="93" height="70" as="geometry" />
        </mxCell>
        <mxCell id="0B8fpwyA28IvFozWtNzo-43" value="" style="outlineConnect=0;dashed=0;verticalLabelPosition=bottom;verticalAlign=top;align=center;html=1;shape=mxgraph.aws3.traditional_server;fillColor=#7D7C7C;gradientColor=none;fontSize=18;" vertex="1" parent="1">
          <mxGeometry x="105" y="638.5" width="46.5" height="63" as="geometry" />
        </mxCell>
        <mxCell id="0B8fpwyA28IvFozWtNzo-131" style="edgeStyle=orthogonalEdgeStyle;rounded=0;orthogonalLoop=1;jettySize=auto;html=1;fontSize=18;" edge="1" parent="1" source="0B8fpwyA28IvFozWtNzo-44" target="0B8fpwyA28IvFozWtNzo-111">
          <mxGeometry relative="1" as="geometry" />
        </mxCell>
        <mxCell id="0B8fpwyA28IvFozWtNzo-44" value="Routes" style="swimlane;fontSize=18;" vertex="1" parent="1">
          <mxGeometry x="460" y="645" width="210" height="240" as="geometry" />
        </mxCell>
        <mxCell id="0B8fpwyA28IvFozWtNzo-45" value="User routes" style="text;strokeColor=none;fillColor=none;align=left;verticalAlign=middle;spacingLeft=4;spacingRight=4;overflow=hidden;points=[[0,0.5],[1,0.5]];portConstraint=eastwest;rotatable=0;fontSize=14;" vertex="1" parent="0B8fpwyA28IvFozWtNzo-44">
          <mxGeometry y="20" width="200" height="30" as="geometry" />
        </mxCell>
        <mxCell id="0B8fpwyA28IvFozWtNzo-48" value="Notification routes" style="text;strokeColor=none;fillColor=none;align=left;verticalAlign=middle;spacingLeft=4;spacingRight=4;overflow=hidden;points=[[0,0.5],[1,0.5]];portConstraint=eastwest;rotatable=0;fontSize=14;" vertex="1" parent="0B8fpwyA28IvFozWtNzo-44">
          <mxGeometry y="50" width="200" height="30" as="geometry" />
        </mxCell>
        <mxCell id="0B8fpwyA28IvFozWtNzo-49" value="Cloudinary routes" style="text;strokeColor=none;fillColor=none;align=left;verticalAlign=middle;spacingLeft=4;spacingRight=4;overflow=hidden;points=[[0,0.5],[1,0.5]];portConstraint=eastwest;rotatable=0;fontSize=14;" vertex="1" parent="0B8fpwyA28IvFozWtNzo-44">
          <mxGeometry y="80" width="200" height="30" as="geometry" />
        </mxCell>
        <mxCell id="0B8fpwyA28IvFozWtNzo-50" value="Paypal routes" style="text;strokeColor=none;fillColor=none;align=left;verticalAlign=middle;spacingLeft=4;spacingRight=4;overflow=hidden;points=[[0,0.5],[1,0.5]];portConstraint=eastwest;rotatable=0;fontSize=14;" vertex="1" parent="0B8fpwyA28IvFozWtNzo-44">
          <mxGeometry y="110" width="200" height="30" as="geometry" />
        </mxCell>
        <mxCell id="0B8fpwyA28IvFozWtNzo-51" value="Stripe routes" style="text;strokeColor=none;fillColor=none;align=left;verticalAlign=middle;spacingLeft=4;spacingRight=4;overflow=hidden;points=[[0,0.5],[1,0.5]];portConstraint=eastwest;rotatable=0;fontSize=14;" vertex="1" parent="0B8fpwyA28IvFozWtNzo-44">
          <mxGeometry y="140" width="200" height="30" as="geometry" />
        </mxCell>
        <mxCell id="0B8fpwyA28IvFozWtNzo-52" value="Truphone routes" style="text;strokeColor=none;fillColor=none;align=left;verticalAlign=middle;spacingLeft=4;spacingRight=4;overflow=hidden;points=[[0,0.5],[1,0.5]];portConstraint=eastwest;rotatable=0;fontSize=14;" vertex="1" parent="0B8fpwyA28IvFozWtNzo-44">
          <mxGeometry y="170" width="200" height="30" as="geometry" />
        </mxCell>
        <mxCell id="0B8fpwyA28IvFozWtNzo-53" value="unsplash routes" style="text;strokeColor=none;fillColor=none;align=left;verticalAlign=middle;spacingLeft=4;spacingRight=4;overflow=hidden;points=[[0,0.5],[1,0.5]];portConstraint=eastwest;rotatable=0;fontSize=14;" vertex="1" parent="0B8fpwyA28IvFozWtNzo-44">
          <mxGeometry y="200" width="200" height="30" as="geometry" />
        </mxCell>
        <mxCell id="0B8fpwyA28IvFozWtNzo-56" value="Middlewares" style="swimlane;fontSize=18;" vertex="1" parent="1">
          <mxGeometry x="610" y="370" width="204" height="95" as="geometry" />
        </mxCell>
        <mxCell id="0B8fpwyA28IvFozWtNzo-57" value="extractJWT" style="text;strokeColor=none;fillColor=none;align=left;verticalAlign=middle;spacingLeft=4;spacingRight=4;overflow=hidden;points=[[0,0.5],[1,0.5]];portConstraint=eastwest;rotatable=0;fontSize=14;" vertex="1" parent="0B8fpwyA28IvFozWtNzo-56">
          <mxGeometry y="25" width="200" height="30" as="geometry" />
        </mxCell>
        <mxCell id="0B8fpwyA28IvFozWtNzo-58" value="validation" style="text;strokeColor=none;fillColor=none;align=left;verticalAlign=middle;spacingLeft=4;spacingRight=4;overflow=hidden;points=[[0,0.5],[1,0.5]];portConstraint=eastwest;rotatable=0;fontSize=14;" vertex="1" parent="0B8fpwyA28IvFozWtNzo-56">
          <mxGeometry y="55" width="200" height="30" as="geometry" />
        </mxCell>
        <mxCell id="0B8fpwyA28IvFozWtNzo-59" style="edgeStyle=orthogonalEdgeStyle;rounded=0;orthogonalLoop=1;jettySize=auto;html=1;entryX=0.47;entryY=0.003;entryDx=0;entryDy=0;entryPerimeter=0;fontSize=18;" edge="1" parent="1" source="0B8fpwyA28IvFozWtNzo-58" target="0B8fpwyA28IvFozWtNzo-44">
          <mxGeometry relative="1" as="geometry" />
        </mxCell>
        <mxCell id="0B8fpwyA28IvFozWtNzo-65" style="edgeStyle=orthogonalEdgeStyle;rounded=0;orthogonalLoop=1;jettySize=auto;html=1;entryX=0;entryY=0.5;entryDx=0;entryDy=0;fontSize=18;" edge="1" parent="1" source="0B8fpwyA28IvFozWtNzo-60" target="0B8fpwyA28IvFozWtNzo-45">
          <mxGeometry relative="1" as="geometry" />
        </mxCell>
        <mxCell id="0B8fpwyA28IvFozWtNzo-60" value="Controllers" style="swimlane;fontSize=18;" vertex="1" parent="1">
          <mxGeometry x="608" y="490" width="206" height="50" as="geometry" />
        </mxCell>
        <mxCell id="0B8fpwyA28IvFozWtNzo-61" value="User Controllers" style="text;strokeColor=none;fillColor=none;align=left;verticalAlign=middle;spacingLeft=4;spacingRight=4;overflow=hidden;points=[[0,0.5],[1,0.5]];portConstraint=eastwest;rotatable=0;fontSize=14;" vertex="1" parent="0B8fpwyA28IvFozWtNzo-60">
          <mxGeometry y="20" width="200" height="30" as="geometry" />
        </mxCell>
        <mxCell id="0B8fpwyA28IvFozWtNzo-73" style="edgeStyle=orthogonalEdgeStyle;rounded=0;orthogonalLoop=1;jettySize=auto;html=1;entryX=-0.024;entryY=0.385;entryDx=0;entryDy=0;entryPerimeter=0;fontSize=18;" edge="1" parent="1" source="0B8fpwyA28IvFozWtNzo-69" target="0B8fpwyA28IvFozWtNzo-1">
          <mxGeometry relative="1" as="geometry" />
        </mxCell>
        <mxCell id="0B8fpwyA28IvFozWtNzo-69" value="Mobile client" style="sketch=0;outlineConnect=0;fontColor=#232F3E;gradientColor=none;strokeColor=#232F3E;fillColor=#ffffff;dashed=0;verticalLabelPosition=bottom;verticalAlign=top;align=center;html=1;fontSize=12;fontStyle=0;aspect=fixed;shape=mxgraph.aws4.resourceIcon;resIcon=mxgraph.aws4.mobile_client;" vertex="1" parent="1">
          <mxGeometry x="90" y="300" width="150" height="150" as="geometry" />
        </mxCell>
        <mxCell id="0B8fpwyA28IvFozWtNzo-74" style="edgeStyle=orthogonalEdgeStyle;rounded=0;orthogonalLoop=1;jettySize=auto;html=1;fontSize=18;" edge="1" parent="1" source="0B8fpwyA28IvFozWtNzo-51" target="0B8fpwyA28IvFozWtNzo-41">
          <mxGeometry relative="1" as="geometry" />
        </mxCell>
        <mxCell id="0B8fpwyA28IvFozWtNzo-80" value="Typescript" style="rounded=0;whiteSpace=wrap;html=1;fontSize=18;" vertex="1" parent="1">
          <mxGeometry x="50" y="720" width="280" height="30" as="geometry" />
        </mxCell>
        <mxCell id="0B8fpwyA28IvFozWtNzo-81" value="Ts-node" style="rounded=0;whiteSpace=wrap;html=1;fontSize=18;" vertex="1" parent="1">
          <mxGeometry x="50" y="750" width="280" height="30" as="geometry" />
        </mxCell>
        <mxCell id="0B8fpwyA28IvFozWtNzo-82" value="Express" style="rounded=0;whiteSpace=wrap;html=1;fontSize=18;" vertex="1" parent="1">
          <mxGeometry x="50" y="780" width="280" height="30" as="geometry" />
        </mxCell>
        <mxCell id="0B8fpwyA28IvFozWtNzo-83" value="MongoDB" style="rounded=0;whiteSpace=wrap;html=1;fontSize=18;" vertex="1" parent="1">
          <mxGeometry x="50" y="810" width="280" height="30" as="geometry" />
        </mxCell>
        <mxCell id="0B8fpwyA28IvFozWtNzo-108" value="APIs" style="swimlane;fontSize=14;" vertex="1" parent="1">
          <mxGeometry x="720" y="670" width="200" height="180" as="geometry" />
        </mxCell>
        <mxCell id="0B8fpwyA28IvFozWtNzo-110" value="Stripe " style="text;strokeColor=none;fillColor=none;align=left;verticalAlign=middle;spacingLeft=4;spacingRight=4;overflow=hidden;points=[[0,0.5],[1,0.5]];portConstraint=eastwest;rotatable=0;fontSize=14;" vertex="1" parent="0B8fpwyA28IvFozWtNzo-108">
          <mxGeometry y="55" width="200" height="30" as="geometry" />
        </mxCell>
        <mxCell id="0B8fpwyA28IvFozWtNzo-111" value="Paypal" style="text;strokeColor=none;fillColor=none;align=left;verticalAlign=middle;spacingLeft=4;spacingRight=4;overflow=hidden;points=[[0,0.5],[1,0.5]];portConstraint=eastwest;rotatable=0;fontSize=14;" vertex="1" parent="0B8fpwyA28IvFozWtNzo-108">
          <mxGeometry y="85" width="200" height="30" as="geometry" />
        </mxCell>
        <mxCell id="0B8fpwyA28IvFozWtNzo-116" value="Truphone " style="text;strokeColor=none;fillColor=none;align=left;verticalAlign=middle;spacingLeft=4;spacingRight=4;overflow=hidden;points=[[0,0.5],[1,0.5]];portConstraint=eastwest;rotatable=0;fontSize=14;" vertex="1" parent="0B8fpwyA28IvFozWtNzo-108">
          <mxGeometry y="25" width="200" height="30" as="geometry" />
        </mxCell>
        <mxCell id="0B8fpwyA28IvFozWtNzo-129" value="Cloudinary " style="text;strokeColor=none;fillColor=none;align=left;verticalAlign=middle;spacingLeft=4;spacingRight=4;overflow=hidden;points=[[0,0.5],[1,0.5]];portConstraint=eastwest;rotatable=0;fontSize=14;" vertex="1" parent="0B8fpwyA28IvFozWtNzo-108">
          <mxGeometry y="115" width="200" height="30" as="geometry" />
        </mxCell>
        <mxCell id="0B8fpwyA28IvFozWtNzo-130" value="eSIMGO " style="text;strokeColor=none;fillColor=none;align=left;verticalAlign=middle;spacingLeft=4;spacingRight=4;overflow=hidden;points=[[0,0.5],[1,0.5]];portConstraint=eastwest;rotatable=0;fontSize=14;" vertex="1" parent="0B8fpwyA28IvFozWtNzo-108">
          <mxGeometry y="145" width="200" height="30" as="geometry" />
        </mxCell>
      </root>
    </mxGraphModel>
  </diagram>
</mxfile>
